# xmcd
#
# Track frame offsets:
#	150
#	23272
#	43310
#	62325
#	92967
#	110397
#	131680
#	155035
#	190992
#	210062
#	231120
#
# Disc length: 3267 seconds
#
# Revision: 1
# Processed by: cddbd v1.5PL3 Copyright (c) Steve Scherf et al.
# Submitted via: CDex 1.50Beta5
#
DISCID=890cc10b
DTITLE=小林靖宏 - シチリアの月の下で
DYEAR=1991
DGENRE=
TTITLE0=SARA
TTITLE1=水に映える都
TTITLE2=花市場
TTITLE3=TANGHESTA〜ピアソラへのオマージュ〜
TTITLE4=夢の国
TTITLE5=DANZA LUNATICA
TTITLE6=天秤座の魚
TTITLE7=スペイン階段の誘惑
TTITLE8=カヴール通り2:00am
TTITLE9=コロンブスの卵
TTITLE10=君に涙とほほえみを
EXTD=
EXTT0=
EXTT1=
EXTT2=
EXTT3=
EXTT4=
EXTT5=
EXTT6=
EXTT7=
EXTT8=
EXTT9=
EXTT10=
PLAYORDER=
